<svg width="107" height="33" viewBox="0 0 107 33" fill="none" xmlns="http://www.w3.org/2000/svg">
<path d="M0 3.5C0 2.39543 0.895431 1.5 2 1.5H25.1716C26.9534 1.5 27.8457 3.65428 26.5858 4.91421L15 16.5L3.41422 28.0858C2.15429 29.3457 0 28.4534 0 26.6716V3.5Z" fill="url(#paint0_linear_501:40)"/>
<path d="M29 27.5C29 28.6046 28.1046 29.5 27 29.5L17.8284 29.5C16.0466 29.5 15.1543 27.3457 16.4142 26.0858L21 21.5L25.5858 16.9142C26.8457 15.6543 29 16.5466 29 18.3284L29 27.5Z" fill="url(#paint1_linear_501:40)"/>
<text fill="url(#paint2_linear_501:40)" xml:space="preserve" style="white-space: pre" font-family="Nunito" font-size="24" font-weight="800" letter-spacing="0.05em"><tspan x="39" y="24.396">Klean</tspan></text>
<defs>
<linearGradient id="paint0_linear_501:40" x1="15" y1="1.5" x2="15" y2="31.5" gradientUnits="userSpaceOnUse">
<stop stop-color="#579AFF"/>
<stop offset="1" stop-color="#4E92F9"/>
</linearGradient>
<linearGradient id="paint1_linear_501:40" x1="21" y1="29.5" x2="21" y2="13.5" gradientUnits="userSpaceOnUse">
<stop stop-color="#C048EC"/>
<stop offset="1" stop-color="#F9E9FF"/>
</linearGradient>
<linearGradient id="paint2_linear_501:40" x1="39" y1="0" x2="94.232" y2="47.7642" gradientUnits="userSpaceOnUse">
<stop stop-color="#C381DB"/>
<stop offset="1" stop-color="#4E92F9"/>
</linearGradient>
</defs>
</svg>
